<svg width="16" height="17" viewBox="0 0 16 17" fill="none" xmlns="http://www.w3.org/2000/svg">
<g id="Arrow right short">
<path id="Vector" fill-rule="evenodd" clip-rule="evenodd" d="M8.14592 5.14601C8.19236 5.09945 8.24754 5.0625 8.30828 5.0373C8.36903 5.01209 8.43415 4.99911 8.49992 4.99911C8.56568 4.99911 8.63081 5.01209 8.69155 5.0373C8.7523 5.0625 8.80747 5.09945 8.85392 5.14601L11.8539 8.14601C11.9005 8.19245 11.9374 8.24763 11.9626 8.30837C11.9878 8.36912 12.0008 8.43424 12.0008 8.50001C12.0008 8.56578 11.9878 8.6309 11.9626 8.69164C11.9374 8.75239 11.9005 8.80756 11.8539 8.85401L8.85392 11.854C8.76003 11.9479 8.63269 12.0006 8.49992 12.0006C8.36714 12.0006 8.2398 11.9479 8.14592 11.854C8.05203 11.7601 7.99929 11.6328 7.99929 11.5C7.99929 11.3672 8.05203 11.2399 8.14592 11.146L10.7929 8.50001L8.14592 5.85401C8.09935 5.80756 8.06241 5.75239 8.0372 5.69164C8.012 5.6309 7.99902 5.56578 7.99902 5.50001C7.99902 5.43424 8.012 5.36912 8.0372 5.30837C8.06241 5.24763 8.09935 5.19245 8.14592 5.14601Z" fill="#6C757D"/>
<path id="Vector_2" fill-rule="evenodd" clip-rule="evenodd" d="M4 8.5C4 8.36739 4.05268 8.24021 4.14645 8.14645C4.24021 8.05268 4.36739 8 4.5 8H11C11.1326 8 11.2598 8.05268 11.3536 8.14645C11.4473 8.24021 11.5 8.36739 11.5 8.5C11.5 8.63261 11.4473 8.75979 11.3536 8.85355C11.2598 8.94732 11.1326 9 11 9H4.5C4.36739 9 4.24021 8.94732 4.14645 8.85355C4.05268 8.75979 4 8.63261 4 8.5Z" fill="#6C757D"/>
</g>
</svg>
