<svg width="73" height="72" viewBox="0 0 73 72" fill="none" xmlns="http://www.w3.org/2000/svg">
<g id="Exclamation triangle" clip-path="url(#clip0_1157_13385)">
<path id="Vector" fill-rule="evenodd" clip-rule="evenodd" d="M36.221 9.07203C36.1181 9.13373 36.0341 9.22244 35.978 9.32853L5.1215 61.83C5.04463 61.9533 5.00313 62.0953 5.00155 62.2405C4.99996 62.3858 5.03834 62.5286 5.1125 62.6535C5.1845 62.7885 5.279 62.8785 5.3555 62.9235C5.423 62.9685 5.5085 63 5.6525 63H67.361C67.4653 63.0038 67.5685 62.9772 67.658 62.9235C67.762 62.8559 67.8472 62.763 67.9055 62.6535C67.979 62.5282 68.0166 62.3851 68.0142 62.2399C68.0118 62.0946 67.9696 61.9529 67.892 61.83L37.04 9.32853C36.9839 9.22244 36.8999 9.13373 36.797 9.07203C36.7088 9.02366 36.6096 8.99887 36.509 9.00003C36.4084 8.99887 36.3092 9.02366 36.221 9.07203ZM40.919 7.04703C40.4735 6.27107 39.8312 5.62638 39.0569 5.17805C38.2826 4.72973 37.4037 4.49365 36.509 4.49365C35.6143 4.49365 34.7354 4.72973 33.9611 5.17805C33.1868 5.62638 32.5445 6.27107 32.099 7.04703L1.2425 59.5485C-0.813999 63.0495 1.652 67.5 5.6525 67.5H67.361C71.3615 67.5 73.832 63.045 71.771 59.5485L40.919 7.04703Z" fill="#FFC107"/>
<path id="Vector_2" d="M32.009 54C32.009 53.4091 32.1254 52.8239 32.3516 52.278C32.5777 51.732 32.9092 51.2359 33.3271 50.8181C33.7449 50.4002 34.241 50.0687 34.787 49.8426C35.3329 49.6164 35.9181 49.5 36.509 49.5C37.1 49.5 37.6851 49.6164 38.2311 49.8426C38.7771 50.0687 39.2731 50.4002 39.691 50.8181C40.1089 51.2359 40.4403 51.732 40.6665 52.278C40.8926 52.8239 41.009 53.4091 41.009 54C41.009 55.1935 40.5349 56.3381 39.691 57.182C38.8471 58.0259 37.7025 58.5 36.509 58.5C35.3156 58.5 34.171 58.0259 33.3271 57.182C32.4831 56.3381 32.009 55.1935 32.009 54ZM32.45 26.9775C32.3901 26.4098 32.4502 25.8359 32.6264 25.2929C32.8027 24.7499 33.0911 24.25 33.473 23.8257C33.8549 23.4014 34.3217 23.0621 34.8432 22.8298C35.3647 22.5976 35.9292 22.4775 36.5 22.4775C37.0709 22.4775 37.6354 22.5976 38.1569 22.8298C38.6784 23.0621 39.1452 23.4014 39.5271 23.8257C39.909 24.25 40.1974 24.7499 40.3736 25.2929C40.5499 25.8359 40.61 26.4098 40.55 26.9775L38.975 42.759C38.9221 43.379 38.6384 43.9565 38.1801 44.3774C37.7218 44.7983 37.1223 45.0318 36.5 45.0318C35.8778 45.0318 35.2782 44.7983 34.8199 44.3774C34.3616 43.9565 34.078 43.379 34.025 42.759L32.45 26.9775Z" fill="#FFC107"/>
</g>
<defs>
<clipPath id="clip0_1157_13385">
<rect width="72" height="72" fill="white" transform="translate(0.5)"/>
</clipPath>
</defs>
</svg>
