<svg width="24" height="24" viewBox="0 0 24 24" fill="none" xmlns="http://www.w3.org/2000/svg">
<g id="Group 1000006910">
<g id="Mask group">
<mask id="mask0_1464_5156" style="mask-type:alpha" maskUnits="userSpaceOnUse" x="5" y="11" width="14" height="2">
<rect id="Rectangle 34625394" x="5.25" y="11.25" width="13.5" height="1.5" fill="#D9D9D9"/>
</mask>
<g mask="url(#mask0_1464_5156)">
<path id="Union" fill-rule="evenodd" clip-rule="evenodd" d="M12.5303 5.46967C12.3897 5.32902 12.1989 5.25 12 5.25C11.8011 5.25 11.6103 5.32902 11.4697 5.46967C11.329 5.61032 11.25 5.80109 11.25 6V11.25H6C5.80109 11.25 5.61032 11.329 5.46967 11.4697C5.32902 11.6103 5.25 11.8011 5.25 12C5.25 12.1989 5.32902 12.3897 5.46967 12.5303C5.61032 12.671 5.80109 12.75 6 12.75H11.25V18C11.25 18.1989 11.329 18.3897 11.4697 18.5303C11.6103 18.671 11.8011 18.75 12 18.75C12.1989 18.75 12.3897 18.671 12.5303 18.5303C12.671 18.3897 12.75 18.1989 12.75 18V12.75H18C18.1989 12.75 18.3897 12.671 18.5303 12.5303C18.671 12.3897 18.75 12.1989 18.75 12C18.75 11.8011 18.671 11.6103 18.5303 11.4697C18.3897 11.329 18.1989 11.25 18 11.25H12.75V6C12.75 5.80109 12.671 5.61032 12.5303 5.46967Z" fill="#007BFF"/>
</g>
</g>
</g>
</svg>
