<?xml version="1.0" standalone="no"?>
<!DOCTYPE svg PUBLIC "-//W3C//DTD SVG 20010904//EN"
 "http://www.w3.org/TR/2001/REC-SVG-20010904/DTD/svg10.dtd">
<svg version="1.0" xmlns="http://www.w3.org/2000/svg"
 width="900.000000pt" height="513.000000pt" viewBox="0 0 900.000000 513.000000"
 preserveAspectRatio="xMidYMid meet">
<metadata>
Created by potrace 1.10, written by Peter Selinger 2001-2011
</metadata>
<g transform="translate(0.000000,513.000000) scale(0.100000,-0.100000)"
fill="#0275d8" stroke="none">
<path d="M5388 4903 c-31 -8 -19 -21 25 -27 48 -7 80 0 74 18 -4 11 -69 18
-99 9z"/>
<path d="M5505 4900 c-6 -9 33 -30 55 -30 16 0 23 22 9 31 -19 12 -56 11 -64
-1z"/>
<path d="M2574 4865 c-4 -9 -19 -15 -39 -15 -88 0 -183 -193 -130 -264 8 -11
15 -26 15 -34 0 -17 70 -92 86 -92 6 0 18 -7 25 -16 20 -24 122 -13 185 21 48
26 93 69 94 91 0 6 7 17 15 24 10 9 15 32 15 77 0 47 -4 65 -15 69 -8 4 -15
15 -15 26 0 11 -17 37 -37 59 -28 29 -45 39 -69 39 -17 0 -37 7 -44 15 -7 8
-28 15 -47 15 -21 0 -36 -6 -39 -15z m74 -71 c26 -8 12 -34 -18 -34 -62 0
-131 -86 -116 -144 8 -31 26 -34 26 -5 0 43 56 119 88 119 10 0 29 13 42 30
14 16 30 29 37 30 18 0 32 -32 22 -55 -4 -11 -8 -38 -9 -60 0 -22 -7 -49 -15
-59 -8 -11 -15 -28 -15 -37 0 -37 20 -28 48 21 16 27 32 47 35 43 15 -14 6
-56 -19 -89 l-26 -34 -90 0 c-49 0 -98 4 -108 10 -32 17 -60 74 -60 123 0 41
5 51 42 89 23 24 41 49 39 56 -1 9 9 11 41 6 24 -3 49 -7 56 -10z"/>
<path d="M2616 4675 c-11 -17 -16 -42 -14 -72 6 -86 39 -54 54 50 5 38 3 47
-9 47 -8 0 -22 -11 -31 -25z"/>
<path d="M5270 4856 c0 -24 14 -26 40 -5 l25 19 -32 0 c-22 0 -33 -5 -33 -14z"/>
<path d="M5640 4860 c0 -5 9 -10 20 -10 11 0 20 5 20 10 0 6 -9 10 -20 10 -11
0 -20 -4 -20 -10z"/>
<path d="M5217 4843 c-12 -11 -8 -23 8 -23 8 0 15 7 15 15 0 16 -12 20 -23 8z"/>
<path d="M5150 4793 c-19 -7 -90 -74 -90 -85 0 -16 19 -7 55 25 30 26 64 69
53 66 -2 0 -10 -3 -18 -6z"/>
<path d="M7299 4772 c-19 -9 -43 -33 -53 -53 -19 -36 -19 -36 0 -70 16 -28 27
-35 58 -37 74 -6 120 71 80 134 -26 39 -46 45 -85 26z"/>
<path d="M5740 4730 c-133 -7 -173 -29 -227 -125 -26 -48 -27 -56 -29 -200 -2
-216 12 -522 25 -576 12 -45 66 -119 87 -119 6 0 19 -9 29 -20 10 -11 24 -20
30 -20 7 0 23 -10 36 -23 33 -31 75 -57 94 -57 11 0 15 11 15 40 0 29 5 42 20
50 36 19 21 30 -44 30 -96 0 -123 9 -170 54 -58 57 -65 87 -73 326 -2 85 -7
221 -10 301 l-4 146 35 59 c61 105 15 99 761 99 522 0 647 -3 680 -14 127 -44
170 -202 163 -586 -4 -186 -5 -191 -33 -242 -28 -53 -60 -84 -125 -118 -32
-18 -69 -20 -462 -25 l-427 -5 -33 -30 c-18 -16 -42 -39 -53 -51 -49 -53 -129
-113 -160 -118 -56 -11 -84 -76 -33 -76 22 0 90 52 154 118 23 23 45 42 49 42
3 0 18 11 33 25 33 31 40 31 48 1 4 -18 -2 -32 -30 -60 -20 -20 -54 -45 -75
-55 -49 -25 -101 -85 -101 -116 0 -21 -6 -25 -47 -30 -108 -14 -153 -28 -249
-76 -55 -27 -122 -70 -149 -94 -26 -25 -59 -52 -72 -60 -12 -9 -30 -30 -38
-48 -8 -17 -25 -52 -39 -76 -22 -38 -25 -71 -7 -71 3 0 17 16 30 35 65 96 200
209 316 264 147 69 208 88 325 100 171 18 462 -35 495 -90 9 -13 55 -11 55 2
0 6 -34 44 -75 83 -41 40 -75 79 -75 87 0 14 -38 39 -60 39 -5 0 -5 -14 1 -32
5 -18 5 -35 1 -39 -4 -4 -65 -9 -135 -10 -169 -4 -178 7 -85 114 31 36 57 56
77 60 17 4 31 13 31 20 0 16 -31 51 -65 73 -59 38 -41 40 408 36 389 -4 435
-3 449 12 9 9 24 16 32 16 22 0 136 111 136 132 0 10 5 18 10 18 16 0 12 -48
-6 -76 -22 -32 -14 -38 33 -27 l38 9 6 89 c3 50 16 126 28 170 17 61 20 89 13
120 -9 42 -7 122 4 167 5 24 2 29 -32 45 -28 13 -40 26 -44 48 -4 17 -12 40
-18 52 -7 12 -12 39 -12 61 0 23 -6 45 -15 52 -8 7 -15 20 -15 30 0 10 -7 20
-15 24 -8 3 -15 11 -15 19 0 15 -40 54 -82 80 -24 15 -87 17 -615 19 -323 2
-635 1 -693 -2z"/>
<path d="M3275 4689 c-4 -5 -22 -16 -42 -24 -53 -22 -140 -115 -153 -164 -6
-23 -14 -41 -18 -41 -5 0 -9 -177 -10 -393 -2 -334 0 -396 13 -412 8 -11 15
-28 15 -37 0 -29 110 -132 172 -161 31 -15 61 -27 66 -27 6 0 29 -16 52 -35
23 -19 51 -35 62 -35 20 0 21 1 3 20 -18 19 -17 20 3 20 12 0 22 -4 22 -10 0
-5 7 -10 15 -10 18 0 20 -27 3 -32 -6 -2 -8 -10 -4 -16 4 -7 16 -10 27 -7 11
4 19 2 19 -4 0 -6 5 -11 12 -11 6 0 26 -11 44 -25 18 -14 37 -25 42 -25 4 0
44 -34 87 -76 46 -44 91 -78 107 -81 21 -4 28 -11 28 -28 0 -39 23 -48 50 -20
25 27 20 40 -15 47 -15 3 -19 10 -17 30 1 15 -4 57 -13 93 -8 37 -15 78 -15
93 0 15 -7 38 -16 50 -9 14 -13 30 -8 44 l6 21 272 -8 c495 -14 769 -4 803 30
8 8 21 15 29 15 25 0 144 113 144 138 0 4 9 15 20 25 11 9 20 25 20 35 0 10 6
24 12 30 15 15 13 543 -2 657 -22 164 -75 245 -208 316 l-55 29 -783 0 c-497
-1 -786 -4 -789 -11z m386 -59 c31 13 781 17 820 5 11 -4 26 -1 34 5 9 8 29 9
57 5 24 -4 84 -9 133 -10 50 -2 101 -5 115 -6 38 -6 147 -97 187 -156 31 -47
36 -63 45 -155 5 -57 11 -218 11 -358 2 -295 0 -304 -95 -398 -100 -99 -59
-93 -650 -92 -580 0 -556 3 -544 -69 12 -71 18 -191 10 -191 -13 0 -54 43 -54
57 0 7 -7 13 -15 13 -8 0 -30 14 -48 30 -19 17 -42 30 -50 30 -9 0 -24 10 -34
23 -10 13 -50 44 -89 70 -55 36 -80 47 -111 47 -35 0 -81 23 -103 51 -3 3 -14
9 -26 13 -32 10 -89 77 -111 131 -17 40 -22 82 -27 220 -11 289 -9 445 8 505
27 100 31 107 64 135 17 15 32 36 32 46 0 12 4 17 11 14 6 -4 21 3 35 15 19
19 36 23 86 24 57 1 63 -1 66 -20 2 -16 -10 -31 -47 -59 -31 -22 -54 -47 -58
-63 -3 -15 -10 -30 -16 -33 -12 -8 -10 -166 3 -188 6 -11 9 14 10 77 0 73 3
94 15 98 8 4 15 12 15 19 0 7 15 25 33 39 17 14 39 33 48 41 12 11 41 15 117
15 61 0 102 4 102 10 0 6 -8 10 -18 10 -10 0 -27 7 -38 15 -22 17 -66 19 -81
4 -11 -11 -63 -2 -63 12 0 5 0 12 0 17 0 14 134 18 164 4 22 -11 34 -11 57 -2z"/>
<path d="M3650 4547 c0 -7 14 -23 30 -37 17 -14 30 -32 30 -40 0 -9 7 -25 15
-36 20 -27 21 -157 0 -174 -8 -7 -15 -18 -15 -24 0 -19 -51 -63 -94 -80 -77
-32 -173 -11 -247 54 -24 22 -47 40 -51 40 -20 0 -3 -25 61 -90 53 -54 80 -75
116 -85 37 -12 163 -15 635 -16 445 -1 594 -5 606 -14 19 -13 13 -60 -8 -66
-7 -2 -301 -2 -653 1 l-640 5 -5 38 c-5 34 -7 37 -23 25 -9 -7 -23 -35 -30
-63 -9 -40 -17 -51 -35 -53 -34 -5 -62 -68 -62 -140 0 -49 5 -66 28 -98 16
-21 49 -49 74 -61 42 -21 59 -23 220 -23 l175 0 41 29 c24 18 44 43 52 65 13
40 41 69 48 48 2 -7 18 -20 35 -30 29 -15 76 -17 440 -20 363 -3 411 -2 426
13 10 8 24 13 32 10 14 -5 31 25 43 77 8 37 -33 84 -87 100 -56 15 -64 24 -45
45 23 27 30 68 15 95 -17 32 -54 68 -71 68 -27 0 -38 26 -28 64 11 37 6 72
-11 93 -6 9 -1 27 17 57 14 25 26 55 26 68 0 30 -44 72 -90 86 -53 16 -174 30
-185 22 -5 -5 -81 -7 -168 -6 -87 1 -161 -2 -163 -5 -2 -4 -31 -5 -64 -2 -119
11 -230 -32 -230 -89 1 -23 1 -22 26 6 l25 28 396 0 c283 -1 399 -5 409 -13
21 -17 17 -47 -8 -60 -31 -17 -793 -16 -813 1 -12 10 -15 9 -15 -3 0 -9 5 -19
10 -22 18 -11 11 -37 -16 -62 -22 -20 -25 -30 -21 -60 4 -19 14 -44 23 -54 10
-11 15 -21 13 -22 -11 -9 -143 -35 -151 -31 -4 3 5 19 22 35 90 90 100 258 20
352 -54 65 -80 82 -80 54z m990 -302 c13 -8 13 -52 0 -60 -13 -8 -777 -8 -790
0 -13 8 -13 48 1 62 12 12 770 10 789 -2z m-1010 -325 l127 0 39 -34 c38 -33
39 -36 37 -94 -2 -69 -18 -98 -70 -124 -29 -15 -53 -17 -188 -11 -151 6 -156
7 -204 37 -35 22 -51 39 -55 60 -13 61 -7 84 32 125 38 40 72 52 126 45 16 -2
86 -4 156 -4z m1225 -119 l0 -33 -459 -2 -459 -1 -10 22 c-7 16 -6 27 3 38 11
13 72 15 444 17 237 2 442 0 456 -3 20 -4 25 -11 25 -38z"/>
<path d="M3493 4503 c-12 -2 -27 -11 -33 -19 -11 -12 0 -14 74 -14 89 0 109
10 55 29 -32 11 -55 12 -96 4z"/>
<path d="M3660 4395 c0 -22 4 -34 10 -30 6 3 10 17 10 30 0 13 -4 27 -10 30
-6 4 -10 -8 -10 -30z"/>
<path d="M3374 4376 c-8 -22 -1 -59 13 -63 8 -3 11 9 10 36 -1 41 -13 54 -23
27z"/>
<path d="M3657 4331 c-3 -12 -1 -21 3 -21 15 0 23 21 12 32 -6 6 -11 2 -15
-11z"/>
<path d="M3410 4280 c0 -11 2 -20 5 -20 2 0 9 9 15 20 9 16 8 20 -5 20 -8 0
-15 -9 -15 -20z"/>
<path d="M3510 4230 c0 -6 -10 -15 -22 -21 -22 -9 -22 -9 2 -4 14 3 40 8 58
12 43 8 41 23 -3 23 -19 0 -35 -5 -35 -10z"/>
<path d="M5865 4630 c-4 -6 8 -10 30 -10 22 0 34 4 30 10 -3 6 -17 10 -30 10
-13 0 -27 -4 -30 -10z"/>
<path d="M5731 4570 c-70 -68 -89 -153 -55 -250 17 -50 92 -127 134 -137 14
-3 34 -12 45 -19 25 -18 63 -18 99 1 15 8 35 15 43 15 7 0 36 21 63 46 42 39
52 57 75 130 26 84 26 104 0 104 -7 0 -17 9 -20 20 -3 11 -11 20 -16 20 -5 0
-14 11 -19 25 -5 14 -14 25 -20 25 -5 0 -10 7 -10 15 0 8 -7 15 -15 15 -18 0
-20 -16 -2 -27 33 -21 48 -64 49 -146 1 -73 -2 -87 -23 -116 -41 -55 -85 -76
-159 -75 -83 0 -140 30 -187 96 -27 39 -32 55 -31 95 2 56 42 143 68 150 10 3
21 11 24 19 3 8 15 14 26 14 11 0 20 5 20 10 0 24 -50 7 -89 -30z"/>
<path d="M5960 4600 c0 -5 12 -10 28 -10 21 0 24 2 12 10 -20 13 -40 13 -40 0z"/>
<path d="M2847 4573 c-4 -3 -7 -15 -7 -26 0 -29 -57 -95 -104 -120 -22 -12
-68 -24 -100 -27 -105 -9 -77 -40 36 -40 47 0 65 5 103 31 75 51 116 119 100
168 -6 21 -16 26 -28 14z"/>
<path d="M5823 4527 c-15 -13 -35 -26 -44 -29 -19 -7 -32 -60 -16 -70 17 -11
35 2 46 33 5 16 18 32 28 36 10 3 26 13 36 21 13 12 15 17 5 24 -19 12 -24 10
-55 -15z"/>
<path d="M5930 4531 c0 -5 12 -18 26 -29 26 -18 26 -19 9 -45 -9 -15 -21 -27
-26 -27 -15 0 -10 -17 7 -24 33 -13 73 37 65 82 -6 33 -81 73 -81 43z"/>
<path d="M6235 4504 c-5 -1 -22 -5 -37 -8 -16 -4 -28 -11 -28 -16 0 -6 127
-11 333 -12 l332 -3 3 -33 c4 -40 27 -38 27 3 0 19 -9 34 -27 48 -25 18 -44
20 -310 22 -155 1 -287 1 -293 -1z"/>
<path d="M5812 4389 c5 -17 48 -25 48 -10 0 6 -4 11 -9 11 -5 0 -17 3 -27 7
-12 4 -15 2 -12 -8z"/>
<path d="M6218 4393 c-46 -4 -60 -14 -37 -28 7 -5 5 -13 -6 -25 -15 -17 -10
-18 117 -25 73 -4 225 -5 338 -3 l205 3 0 -33 0 -33 -328 -2 c-181 -1 -333 0
-337 3 -5 3 -10 19 -12 35 -3 24 -6 27 -12 12 -9 -19 18 -87 34 -87 18 0 10
-22 -20 -57 -33 -37 -40 -87 -15 -97 16 -6 21 -56 6 -56 -22 0 -41 13 -41 29
0 10 -15 31 -32 46 -40 35 -111 47 -240 38 -77 -5 -91 -9 -122 -35 -20 -16
-36 -38 -36 -49 0 -26 6 -24 47 16 l36 35 140 0 c137 0 140 -1 163 -26 13 -14
24 -30 24 -36 0 -7 5 -26 11 -43 10 -27 9 -36 -14 -71 -34 -54 -74 -67 -202
-61 -55 2 -112 8 -127 12 -41 11 -35 -10 12 -41 39 -26 44 -27 148 -22 122 6
154 18 198 73 26 32 33 35 54 27 112 -44 585 -47 653 -5 48 29 64 82 31 101
-26 14 -9 29 42 37 31 4 54 15 70 32 29 32 30 46 4 88 -20 33 -44 45 -91 45
-37 0 -41 9 -19 38 26 33 25 52 -5 96 -13 20 -22 42 -19 50 4 9 -9 15 -48 19
-54 7 -485 6 -570 0z m740 -285 c3 -22 -2 -30 -20 -35 -13 -5 -191 -7 -395 -5
l-373 2 -6 25 c-3 13 -3 29 1 35 4 7 128 9 398 8 l392 -3 3 -27z m-156 -128
c23 0 36 -49 17 -61 -21 -13 -646 -12 -654 2 -13 20 4 58 28 61 16 2 440 1
609 -2z"/>
<path d="M1910 4365 c-14 -8 -32 -17 -41 -21 -21 -7 -42 -78 -34 -114 8 -39
58 -80 96 -80 42 0 88 26 99 56 12 30 13 104 2 120 -9 14 -74 54 -87 54 -5 0
-21 -7 -35 -15z"/>
<path d="M7336 4358 c-21 -30 -20 -45 4 -53 42 -13 78 21 63 61 -8 22 -50 17
-67 -8z"/>
<path d="M2340 4313 c-31 -6 -66 -43 -73 -79 -7 -41 37 -94 80 -94 71 0 120
54 107 119 -11 51 -44 67 -114 54z"/>
<path d="M2726 4282 c-8 -25 2 -52 20 -52 18 0 18 44 0 59 -11 10 -16 8 -20
-7z"/>
<path d="M2854 4266 c-10 -26 4 -48 28 -44 17 2 23 10 23 28 0 18 -6 26 -23
28 -13 2 -25 -3 -28 -12z"/>
<path d="M5150 4262 c0 -19 49 -53 71 -50 33 5 33 21 -2 41 -32 18 -69 23 -69
9z"/>
<path d="M2611 4240 c-17 -10 -6 -60 12 -60 17 0 37 20 37 37 0 17 -33 33 -49
23z"/>
<path d="M5280 4200 c0 -5 9 -10 21 -10 11 0 17 5 14 10 -3 6 -13 10 -21 10
-8 0 -14 -4 -14 -10z"/>
<path d="M2732 4181 c-17 -11 -4 -41 18 -41 10 0 20 7 24 15 6 18 -25 37 -42
26z"/>
<path d="M2854 4085 c-4 -8 -4 -22 0 -30 5 -13 8 -13 26 2 11 10 20 23 20 30
0 18 -39 16 -46 -2z"/>
<path d="M5896 4012 c-3 -6 -1 -14 5 -17 15 -10 25 3 12 16 -7 7 -13 7 -17 1z"/>
<path d="M1454 3995 c-4 -8 -13 -15 -21 -15 -25 0 -93 -75 -93 -103 0 -13 -7
-30 -15 -37 -13 -11 -15 -63 -15 -356 0 -333 1 -345 22 -386 25 -50 68 -92
120 -119 34 -18 62 -19 355 -19 175 0 324 -4 332 -9 12 -8 10 -16 -12 -45 -39
-50 -37 -67 6 -45 36 19 67 51 67 71 0 15 8 18 53 18 l52 0 145 -137 c162
-152 188 -191 172 -254 -9 -37 -9 -37 14 -27 29 13 35 31 39 111 1 34 6 70 10
80 18 43 -24 65 -43 22 -21 -46 -30 -26 -34 78 -4 117 -3 127 23 127 15 0 18
-5 14 -22 -5 -20 -2 -23 22 -24 15 -1 47 -5 70 -9 79 -14 163 59 163 141 0 22
8 51 18 64 15 23 17 58 17 381 0 326 -2 359 -17 376 -10 11 -18 26 -18 34 0
16 -72 89 -88 89 -5 0 -15 7 -22 15 -18 22 -1328 23 -1336 0z m1307 -36 c48
-32 93 -81 111 -122 17 -37 18 -63 12 -363 -6 -256 -10 -324 -21 -328 -7 -3
-13 -18 -13 -32 0 -20 -13 -40 -45 -69 -48 -45 -78 -55 -173 -55 -47 0 -53 -3
-62 -26 -6 -14 -10 -49 -10 -79 0 -30 -3 -56 -7 -58 -10 -5 -43 15 -119 73
-67 50 -78 59 -101 80 -11 10 -57 16 -165 22 -82 4 -158 12 -168 18 -10 6 -51
8 -90 5 -44 -2 -79 0 -90 7 -14 9 -32 9 -73 -1 -45 -10 -60 -10 -76 1 -16 10
-27 10 -55 0 -30 -11 -39 -11 -59 3 -14 9 -29 15 -33 13 -17 -4 -71 31 -90 59
-47 69 -50 87 -64 380 -21 419 6 473 240 483 63 3 343 5 621 5 444 -1 509 -3
530 -16z"/>
<path d="M1675 3910 c-4 -6 17 -10 57 -9 50 1 57 3 33 9 -44 11 -83 11 -90 0z"/>
<path d="M1557 3842 c-26 -26 -47 -55 -47 -64 0 -9 -4 -20 -10 -23 -12 -8 -13
-112 -1 -119 5 -3 12 -21 15 -40 8 -40 97 -136 126 -136 10 0 23 -7 30 -15 17
-20 129 -21 156 0 10 8 26 15 35 15 22 0 73 57 104 115 23 44 25 57 20 115 -7
71 5 120 30 120 8 0 15 3 15 8 0 11 417 4 440 -8 26 -14 25 -36 -2 -51 -23
-13 -433 -17 -445 -5 -23 23 -25 -34 -2 -58 9 -10 688 -11 697 -1 3 3 -2 13
-12 24 -13 14 -37 20 -102 26 -79 6 -84 8 -84 30 0 32 -35 72 -76 85 -25 8
-97 11 -226 8 l-191 -4 -32 -38 c-31 -38 -32 -38 -57 -22 -14 9 -28 26 -31 36
-3 11 -12 20 -21 20 -18 0 -21 -11 -7 -25 33 -35 61 -108 61 -158 0 -47 -5
-61 -41 -110 -22 -32 -41 -57 -42 -57 -2 0 -28 -9 -58 -20 l-56 -19 -62 21
c-57 20 -131 74 -131 97 0 5 -7 17 -16 26 -24 23 -31 130 -9 138 8 4 15 13 15
21 0 21 73 96 93 96 9 0 17 5 17 10 0 25 -49 5 -93 -38z"/>
<path d="M1810 3880 c0 -5 12 -10 26 -10 14 0 23 4 19 10 -3 6 -15 10 -26 10
-10 0 -19 -4 -19 -10z"/>
<path d="M1642 3800 c-24 -17 -45 -37 -48 -45 -9 -23 10 -148 24 -153 9 -3 11
9 6 53 -7 54 -5 58 25 89 18 18 50 39 72 46 36 12 43 11 79 -8 42 -22 52 -13
25 23 -12 14 -30 20 -78 23 -57 3 -66 1 -105 -28z"/>
<path d="M1711 3717 c-6 -8 -12 -24 -13 -38 -2 -18 5 -28 31 -41 41 -21 61
-10 61 32 0 46 -53 78 -79 47z"/>
<path d="M2730 3645 l0 -35 -360 0 -360 0 0 -23 c0 -13 -9 -32 -20 -42 -24
-21 -26 -58 -5 -75 21 -17 19 -43 -6 -73 -16 -21 -19 -34 -13 -64 l7 -38 -32
34 c-17 18 -31 37 -31 42 0 8 -35 16 -89 22 -44 4 -34 -21 11 -28 69 -11 76
-14 83 -45 4 -17 11 -30 16 -30 20 0 9 -76 -16 -113 l-26 -37 -154 0 c-92 0
-156 4 -160 10 -3 6 -13 10 -21 10 -24 0 21 -52 58 -67 42 -18 226 -17 269 1
19 8 51 33 71 55 28 31 39 38 45 28 21 -36 57 -45 188 -47 72 -1 139 -2 150
-3 11 0 55 0 97 1 77 2 78 2 122 45 36 34 43 47 39 69 -5 25 -2 27 41 33 62
10 96 37 96 78 0 43 -9 55 -64 81 -46 22 -48 24 -51 72 l-4 50 52 12 c28 6 61
22 74 34 26 25 32 78 8 78 -10 0 -15 -11 -15 -35z m-155 -140 l0 -30 -274 -3
c-244 -2 -276 -1 -293 14 -10 10 -18 25 -18 36 0 17 13 18 293 16 l292 -3 0
-30z m123 -148 l-3 -32 -334 -3 c-300 -2 -336 -1 -353 14 -25 23 -23 41 7 51
14 4 174 7 356 5 l330 -3 -3 -32z m-392 -97 l234 0 0 -35 c0 -21 -5 -35 -12
-35 -168 -4 -499 -1 -516 4 -12 4 -22 12 -22 17 0 19 51 61 66 55 9 -3 121 -6
250 -6z"/>
<path d="M1614 3397 c-49 -15 -83 -41 -112 -88 -31 -51 -29 -104 3 -125 32
-21 42 -12 21 18 -27 38 -20 73 23 118 35 37 44 41 105 47 58 5 87 16 75 28
-12 11 -80 12 -115 2z"/>
<path d="M1735 3237 c-8 -30 0 -47 14 -31 4 5 5 20 1 34 l-7 25 -8 -28z"/>
<path d="M5654 3975 c-7 -30 2 -75 16 -75 6 0 10 23 10 50 0 53 -15 67 -26 25z"/>
<path d="M5680 3882 c0 -5 7 -13 16 -16 10 -4 14 -1 12 6 -5 15 -28 23 -28 10z"/>
<path d="M7467 3764 c-13 -13 -7 -24 14 -24 11 0 19 5 17 12 -5 14 -22 21 -31
12z"/>
<path d="M5319 3714 c-17 -21 0 -49 32 -49 27 0 37 28 19 50 -16 19 -34 19
-51 -1z"/>
<path d="M7542 3718 c5 -15 28 -18 29 -3 0 6 -7 12 -17 13 -10 3 -15 -1 -12
-10z"/>
<path d="M5431 3659 c-11 -32 -9 -39 18 -71 16 -18 61 -25 61 -9 0 5 -11 16
-25 25 -17 11 -25 26 -25 46 0 41 -16 46 -29 9z"/>
<path d="M7620 3670 c0 -14 38 -32 45 -21 6 10 1 14 -27 24 -10 4 -18 2 -18
-3z"/>
<path d="M7690 3630 c0 -5 6 -13 13 -17 16 -9 79 -140 96 -198 28 -94 13 -253
-30 -325 -37 -61 -66 -104 -74 -111 -44 -39 -94 -71 -117 -76 -16 -3 -28 -8
-28 -12 0 -18 -52 -33 -133 -36 l-90 -4 -39 35 c-41 37 -73 42 -91 13 -8 -12
-4 -25 17 -51 32 -43 74 -52 219 -51 139 2 175 18 295 126 33 29 105 136 120
177 18 49 28 221 14 247 -8 14 -8 23 0 31 8 8 2 28 -22 74 -18 35 -39 70 -47
79 -8 9 -13 21 -11 26 2 5 -13 26 -33 46 -36 36 -59 47 -59 27z"/>
<path d="M5100 3590 c0 -22 -4 -40 -9 -40 -13 0 -61 -45 -61 -57 0 -5 -9 -18
-20 -28 -11 -10 -20 -24 -20 -32 0 -22 29 -27 50 -8 11 10 37 21 58 24 31 5
37 10 40 34 4 32 57 86 84 87 10 0 22 9 28 21 13 24 5 38 -12 21 -16 -16 -49
-15 -72 3 -11 8 -30 15 -43 15 -20 0 -23 -5 -23 -40z"/>
<path d="M6853 3604 c-10 -27 14 -41 44 -24 41 23 40 40 -1 40 -24 0 -39 -5
-43 -16z"/>
<path d="M5329 3598 c-24 -21 -38 -62 -27 -82 5 -9 7 -30 3 -45 -8 -37 0 -42
58 -29 l47 10 0 48 c0 81 -41 131 -81 98z m51 -71 c0 -22 -16 -47 -31 -47 -8
0 -19 52 -12 62 2 5 13 8 24 8 13 0 19 -7 19 -23z"/>
<path d="M6520 3591 c5 -11 14 -21 19 -23 5 -1 27 -27 50 -55 43 -55 61 -65
61 -35 0 10 5 23 11 29 8 8 5 14 -10 22 -12 7 -21 21 -21 31 0 16 -7 20 -30
20 -18 0 -33 6 -36 15 -4 8 -17 15 -30 15 -21 0 -23 -3 -14 -19z"/>
<path d="M6422 3521 c-35 -44 -40 -68 -17 -78 29 -10 93 71 81 103 -9 24 -31
15 -64 -25z"/>
<path d="M5552 3490 c1 -27 5 -50 9 -50 11 0 21 57 14 80 -12 37 -24 21 -23
-30z"/>
<path d="M5455 3501 c-9 -16 3 -31 26 -31 14 0 19 6 17 17 -4 20 -33 29 -43
14z"/>
<path d="M5212 3479 c2 -6 8 -10 13 -10 5 0 11 4 13 10 2 6 -4 11 -13 11 -9 0
-15 -5 -13 -11z"/>
<path d="M6664 3446 c-7 -17 48 -86 76 -98 23 -8 58 67 43 91 -14 23 -111 28
-119 7z"/>
<path d="M3060 3440 c-8 -5 -11 -12 -8 -16 10 -9 38 3 38 16 0 12 -10 13 -30
0z"/>
<path d="M5422 3408 c-7 -7 -12 -23 -12 -37 0 -18 3 -22 9 -13 4 8 27 16 50
19 44 6 57 23 17 23 -14 0 -28 5 -31 10 -8 13 -18 13 -33 -2z"/>
<path d="M5172 3388 c3 -7 18 -14 34 -16 16 -2 41 -15 57 -30 l27 -26 0 42 0
42 -61 0 c-44 0 -60 -3 -57 -12z"/>
<path d="M3130 3378 c-43 -52 -70 -94 -72 -112 -2 -35 3 -81 11 -88 9 -11 61
71 61 97 0 12 7 30 15 41 26 35 13 94 -15 62z"/>
<path d="M4162 3369 c-78 -10 -131 -26 -156 -48 -10 -9 -36 -20 -59 -26 -39
-10 -68 -37 -55 -51 6 -6 84 18 120 37 10 5 26 9 36 9 10 0 27 7 38 15 10 8
32 15 47 15 15 0 40 6 55 14 15 8 71 17 126 21 61 5 93 11 85 16 -17 11 -151
9 -237 -2z"/>
<path d="M6840 3321 c0 -6 -10 -19 -22 -30 l-21 -20 24 -20 c30 -26 36 -26 49
-1 16 30 9 74 -12 78 -10 2 -18 -1 -18 -7z"/>
<path d="M5320 3300 c0 -5 9 -10 19 -10 11 0 23 5 26 10 4 6 -5 10 -19 10 -14
0 -26 -4 -26 -10z"/>
<path d="M6903 3223 c-20 -7 -15 -33 10 -59 32 -34 57 -31 57 5 0 17 5 33 10
36 29 18 -39 34 -77 18z"/>
<path d="M6590 3186 c0 -10 9 -16 21 -16 24 0 21 23 -4 28 -10 2 -17 -3 -17
-12z"/>
<path d="M3086 3143 c-3 -4 -6 -17 -6 -30 0 -15 -9 -27 -25 -35 -42 -19 -29
-42 14 -27 24 8 80 67 69 72 -1 1 -13 7 -24 14 -12 6 -25 9 -28 6z"/>
<path d="M6892 3129 c2 -6 8 -10 13 -10 5 0 11 4 13 10 2 6 -4 11 -13 11 -9 0
-15 -5 -13 -11z"/>
<path d="M7015 3131 c-18 -4 -30 -13 -30 -22 0 -17 59 -89 73 -89 15 0 34 55
30 86 -3 32 -20 37 -73 25z"/>
<path d="M5122 3099 c-23 -11 -66 -23 -95 -26 -56 -6 -107 -42 -107 -75 0 -24
15 -23 68 8 25 15 52 24 63 21 11 -3 33 2 49 11 35 20 59 6 42 -24 -21 -38
-98 -104 -129 -110 -27 -5 -37 -1 -68 30 -19 20 -42 36 -50 36 -26 0 -16 -38
15 -62 29 -21 40 -60 21 -73 -6 -3 -13 -27 -17 -53 -3 -26 -11 -55 -16 -66 -6
-10 -14 -42 -19 -70 -15 -90 -37 -201 -39 -201 -2 0 -25 -116 -40 -208 -9 -55
-50 -131 -58 -107 -3 7 1 17 7 23 6 6 11 36 11 67 0 30 5 71 11 90 6 19 13 64
14 100 l2 65 -95 2 c-53 2 -126 -2 -162 -8 -36 -6 -104 -14 -152 -19 -47 -5
-103 -16 -123 -26 -33 -15 -61 -17 -273 -11 -143 4 -257 2 -287 -4 -27 -6 -97
-17 -155 -25 -58 -8 -125 -19 -150 -24 -25 -5 -115 -10 -200 -11 -102 -2 -167
-7 -190 -16 -33 -13 -36 -13 -55 11 -33 42 -55 29 -55 -32 0 -50 12 -57 72
-44 101 21 197 32 295 33 54 0 125 5 158 10 33 5 148 14 255 19 107 5 218 14
245 20 28 6 136 15 240 20 105 5 273 14 374 20 101 7 194 9 207 6 25 -7 32
-34 14 -52 -6 -6 -14 -39 -19 -75 -5 -35 -15 -82 -22 -105 -15 -51 -7 -78 21
-69 14 4 20 2 20 -9 0 -17 59 -56 87 -56 10 0 28 6 38 14 18 13 18 14 -3 20
-20 7 -22 14 -22 72 0 36 5 75 11 86 6 11 15 44 20 72 13 80 34 168 47 199 7
16 12 42 12 59 0 17 6 51 14 77 16 49 34 120 42 161 3 14 7 35 10 46 3 16 14
24 39 28 20 4 49 21 68 40 113 114 125 141 86 190 -24 30 -21 30 -77 5z"/>
<path d="M4146 3083 c-27 -2 -59 -11 -72 -20 -22 -14 -24 -14 -30 1 -8 20 -57
21 -74 1 -7 -8 -19 -15 -26 -15 -15 0 -54 -35 -54 -49 0 -5 -7 -14 -15 -21 -8
-7 -15 -25 -15 -41 0 -19 -5 -29 -15 -29 -9 0 -15 -9 -15 -22 0 -13 -3 -33 -6
-45 -8 -29 20 -37 108 -28 62 6 67 9 46 19 -30 15 -37 67 -11 94 10 10 32 35
50 55 17 20 36 37 42 37 7 0 23 7 37 16 40 27 131 9 187 -35 21 -17 21 -13 1
27 -8 18 -21 32 -29 32 -7 0 -18 7 -25 15 -7 8 -18 14 -24 13 -6 -1 -33 -3
-60 -5z m-116 -43 c0 -6 -18 -27 -40 -49 -22 -21 -40 -43 -40 -49 0 -5 -7 -12
-15 -16 -8 -3 -15 -14 -15 -25 0 -20 -24 -51 -41 -51 -12 0 -12 47 0 55 5 3
12 18 16 34 8 38 82 111 112 111 13 0 23 -5 23 -10z"/>
<path d="M6705 3040 c-4 -6 -3 -39 0 -74 7 -59 5 -65 -18 -87 -41 -38 -57
-102 -61 -250 -4 -119 -3 -138 16 -182 19 -43 23 -46 32 -30 6 10 12 82 14
161 3 110 7 145 18 149 10 4 12 16 8 43 -5 29 -2 38 10 43 9 4 16 15 16 26 0
25 17 36 35 21 9 -8 15 -8 20 0 4 6 19 9 33 8 21 -2 28 2 30 18 2 15 -17 42
-67 93 -38 39 -72 71 -75 71 -2 0 -8 -5 -11 -10z"/>
<path d="M5660 3030 c-14 -4 -41 -8 -60 -9 -20 -1 -53 -10 -75 -21 -44 -23
-105 -73 -105 -88 0 -5 -7 -12 -15 -16 -8 -3 -15 -14 -15 -24 0 -11 -7 -25
-15 -32 -8 -7 -15 -20 -15 -29 0 -9 -5 -22 -12 -29 -27 -27 -37 -179 -20 -297
14 -89 41 -145 105 -212 53 -56 88 -78 152 -94 93 -24 142 -28 365 -28 205 -1
243 1 288 18 29 10 58 23 65 30 6 6 15 11 21 11 15 0 79 72 98 111 36 75 48
140 48 268 0 173 -21 243 -96 318 -29 29 -59 53 -67 53 -8 0 -20 7 -27 15 -7
8 -25 15 -40 15 -15 0 -33 6 -39 14 -9 11 -48 16 -149 20 -75 3 -189 8 -252
10 -63 3 -126 1 -140 -4z m350 -35 c121 -6 163 -12 190 -26 19 -11 43 -19 54
-19 11 0 17 -3 14 -6 -3 -3 -91 -6 -194 -8 -123 -1 -197 -6 -211 -14 -12 -7
-52 -12 -88 -12 -62 0 -66 1 -60 20 6 18 2 20 -45 20 -51 0 -150 -34 -150 -51
0 -5 -5 -9 -10 -9 -15 0 -90 -80 -90 -96 0 -8 -4 -14 -10 -14 -5 0 -10 11 -10
25 0 14 5 25 10 25 6 0 10 6 10 14 0 22 80 99 128 124 27 14 62 22 95 23 29 1
63 4 77 8 27 7 62 7 290 -4z m-432 -143 c2 -7 -6 -12 -17 -12 -21 0 -27 11
-14 24 9 9 26 2 31 -12z m116 -36 c47 -14 62 -24 90 -64 26 -35 32 -51 25 -64
-5 -9 -9 -30 -9 -46 0 -43 -26 -100 -50 -107 -11 -3 -25 -15 -30 -26 -6 -10
-17 -19 -25 -19 -8 0 -15 -7 -15 -15 0 -12 -13 -15 -60 -15 -45 0 -62 4 -66
15 -4 8 -12 15 -19 15 -25 0 -64 49 -79 99 -18 63 -13 99 25 167 25 44 27 53
13 58 -8 3 -13 10 -10 15 9 14 147 5 210 -13z m562 -13 c14 -16 36 -39 50 -53
21 -22 24 -34 24 -101 0 -83 -14 -139 -35 -139 -8 0 -23 -12 -34 -26 -11 -14
-24 -23 -30 -20 -5 3 -16 3 -25 0 -12 -5 -14 -10 -6 -19 8 -9 7 -14 -2 -17
-20 -7 -48 3 -48 17 0 7 -20 15 -47 19 -43 6 -93 33 -93 51 0 3 -10 19 -22 35
-16 22 -22 43 -21 80 0 28 -3 50 -8 50 -5 0 -9 6 -9 13 0 16 83 107 97 107 6
0 13 7 17 15 4 12 24 15 86 15 75 0 83 -2 106 -27z m-858 -60 c2 -11 -4 -36
-12 -54 l-14 -34 -1 58 c-1 43 2 58 12 55 6 -3 13 -14 15 -25z m590 -338 c27
-9 12 -58 -28 -97 -33 -31 -48 -38 -81 -38 -74 0 -151 76 -133 132 5 18 13 19
117 13 62 -4 118 -8 125 -10z m272 -87 c0 -35 -11 -45 -60 -51 -24 -3 -49 -13
-56 -21 -6 -9 -26 -16 -43 -16 -29 0 -32 3 -29 27 2 18 10 29 23 32 11 2 31 8
45 14 14 5 37 9 51 8 14 -1 31 5 39 13 18 23 30 20 30 -6z m-603 -25 l38 -17
-45 -7 c-49 -7 -69 -2 -121 31 l-34 22 62 -7 c35 -3 80 -13 100 -22z"/>
<path d="M5568 2744 c-35 -19 -48 -43 -48 -92 0 -33 6 -45 35 -71 41 -35 56
-38 95 -14 65 38 62 157 -4 181 -40 15 -45 15 -78 -4z"/>
<path d="M6087 2712 c-22 -22 -27 -38 -27 -75 0 -71 37 -102 109 -91 29 5 41
14 59 44 29 52 28 73 -9 115 -41 46 -92 49 -132 7z"/>
<path d="M7080 3006 c0 -28 50 -76 79 -76 35 0 53 32 37 67 -9 20 -18 23 -63
23 -39 0 -53 -4 -53 -14z"/>
<path d="M4466 2934 c-3 -9 -6 -24 -6 -33 0 -10 -8 -25 -18 -34 -22 -20 -42
-6 -42 29 0 13 -4 25 -9 29 -13 7 -31 -27 -31 -59 0 -31 -18 -34 -28 -6 -7 18
-8 17 -24 -10 -14 -25 -14 -29 -1 -34 8 -3 22 -2 31 3 10 5 22 5 33 -2 13 -8
25 -8 44 1 19 9 32 9 46 1 13 -6 61 -8 129 -5 l110 5 0 -149 0 -150 24 0 c26
0 40 12 29 24 -4 4 -7 62 -8 130 0 82 -4 128 -12 138 -7 8 -37 27 -68 42 -43
22 -62 27 -90 22 -50 -10 -73 0 -80 34 -8 35 -21 46 -29 24z"/>
<path d="M2988 2905 c-16 -13 -28 -29 -28 -35 0 -18 24 -11 49 15 13 14 27 25
32 25 5 0 9 5 9 10 0 18 -34 10 -62 -15z"/>
<path d="M5280 2885 c-7 -8 -25 -15 -41 -15 -16 0 -29 -4 -29 -9 0 -4 -12 -21
-26 -36 -39 -42 -61 -103 -68 -184 -6 -73 2 -104 27 -114 10 -4 14 7 14 46 -1
178 28 249 100 251 31 2 40 7 51 29 19 40 -1 64 -28 32z"/>
<path d="M3700 2871 c-102 -8 -130 -25 -169 -105 -26 -52 -30 -68 -22 -85 17
-31 14 -64 -5 -57 -11 4 -18 -1 -21 -14 -3 -11 -12 -20 -19 -20 -8 0 -14 -7
-14 -17 0 -14 2 -14 20 2 30 27 42 8 38 -61 l-3 -59 -45 -5 -45 -6 60 -9 c33
-5 65 -9 70 -10 12 0 23 88 30 250 3 66 7 125 9 131 3 8 37 10 109 7 63 -3
107 0 111 6 7 10 -13 62 -23 59 -3 -1 -40 -4 -81 -7z"/>
<path d="M1344 2856 c-3 -8 0 -27 8 -43 10 -21 20 -28 42 -28 24 0 31 5 37 29
5 18 4 35 -3 43 -14 18 -77 17 -84 -1z"/>
<path d="M6885 2799 c-21 -39 -45 -166 -45 -232 0 -28 7 -88 16 -135 18 -96
14 -105 -44 -116 -30 -5 -33 -4 -27 14 6 18 4 18 -23 4 -22 -11 -32 -25 -41
-58 -7 -29 -27 -61 -60 -96 -28 -29 -53 -66 -56 -81 -16 -70 -101 -91 -460
-112 -79 -5 -435 20 -449 32 -6 4 -29 12 -51 16 -22 4 -44 10 -50 15 -5 4 -20
11 -32 14 -18 6 -23 3 -23 -11 0 -74 124 -104 515 -127 263 -15 378 -13 412 9
12 8 42 15 66 15 23 0 48 5 54 11 6 6 19 9 29 7 16 -3 18 -16 19 -114 2 -88 6
-116 20 -138 15 -23 16 -31 6 -48 -8 -13 -12 -64 -12 -151 0 -145 -18 -271
-50 -360 -17 -44 -36 -70 -82 -113 -95 -88 -142 -100 -397 -103 -293 -4 -431
33 -546 143 -32 31 -62 56 -66 56 -15 0 -58 44 -58 60 0 9 -7 25 -15 36 -8 10
-15 34 -15 52 0 18 -7 49 -15 69 -11 26 -15 75 -15 187 0 154 7 194 55 326 23
60 32 160 15 160 -6 0 -14 -8 -16 -17 -4 -15 -17 -18 -73 -19 -39 -1 -93 -10
-127 -22 -32 -11 -75 -23 -94 -27 -19 -4 -42 -16 -51 -28 -16 -20 -17 -20 -56
21 -53 56 -83 62 -133 27 -26 -18 -39 -34 -36 -44 14 -46 17 -93 8 -104 -6 -6
-12 -28 -14 -47 -4 -45 22 -52 57 -14 20 21 25 37 25 78 0 32 -6 61 -16 75
-14 19 -14 25 -3 32 22 15 63 6 74 -16 5 -11 23 -37 39 -58 30 -39 30 -45 0
-145 -3 -9 4 -8 25 2 17 9 35 31 45 56 21 53 20 59 -10 70 -16 6 -24 16 -22
27 2 13 22 20 83 29 89 14 182 41 206 61 26 22 49 16 49 -12 0 -39 -39 -85
-71 -85 -14 0 -32 -7 -39 -15 -9 -11 -32 -15 -78 -15 -77 0 -74 -13 5 -20 80
-7 79 -27 -1 -32 -70 -4 -90 -13 -66 -29 14 -9 88 -5 154 8 l29 5 -8 -93 c-15
-185 -4 -354 25 -394 12 -16 19 -124 9 -130 -5 -4 -9 -16 -9 -28 0 -15 -14
-30 -40 -46 -22 -14 -42 -33 -45 -42 -3 -9 -27 -24 -53 -34 -50 -18 -340 -74
-382 -74 -23 0 -24 1 -5 10 37 18 65 71 65 122 0 45 -6 56 -105 187 -58 77
-105 147 -105 157 0 10 7 27 15 37 8 11 15 34 15 52 0 17 7 48 15 67 8 20 15
49 15 65 0 16 10 42 22 57 19 24 20 29 6 39 -8 6 -31 26 -51 43 l-37 32 12 46
c7 25 16 45 20 45 12 0 48 43 48 57 0 7 -11 18 -24 23 -13 5 -27 14 -31 19 -3
6 -15 11 -25 11 -15 0 -19 -11 -25 -67 -3 -38 -12 -96 -20 -130 -8 -34 -15
-84 -15 -111 0 -26 -4 -52 -9 -57 -16 -16 -18 -157 -3 -162 9 -3 12 12 12 59
0 41 5 71 15 84 8 10 15 41 15 69 0 57 14 91 25 62 11 -27 -16 -242 -35 -277
-5 -10 -10 -51 -10 -90 0 -62 2 -71 16 -66 26 10 81 -62 70 -91 -5 -11 -10
-11 -28 -2 -13 7 -27 18 -31 25 -4 8 -15 14 -22 14 -9 0 -15 10 -15 25 0 15
-6 25 -14 25 -7 0 -21 11 -29 24 -14 21 -14 26 -1 45 9 12 14 36 12 59 l-4 37
-10 -34 c-15 -52 -29 -57 -141 -43 -54 7 -165 17 -248 22 -82 5 -168 14 -190
19 -22 5 -94 12 -160 15 -66 3 -138 10 -160 16 -22 5 -75 10 -118 10 -42 0
-121 7 -175 15 -53 8 -138 16 -189 18 -74 3 -97 8 -122 26 -24 18 -29 26 -22
40 12 22 2 100 -15 126 -8 11 -14 45 -14 75 0 34 -6 64 -15 76 -8 10 -15 38
-15 62 0 24 -5 53 -12 65 -7 12 -15 44 -18 70 -3 26 -9 47 -15 47 -25 -1 1
-178 36 -242 5 -10 9 -44 9 -76 0 -32 6 -81 14 -108 8 -27 17 -69 21 -94 18
-128 45 -147 205 -151 58 -1 121 -7 140 -12 19 -5 91 -13 160 -17 69 -4 177
-13 240 -19 349 -35 423 -41 505 -41 59 -1 99 -6 115 -15 16 -9 55 -14 108
-15 78 0 83 -1 94 -25 6 -14 15 -25 20 -25 4 0 8 -7 8 -15 0 -7 6 -18 13 -22
8 -4 24 -24 38 -43 13 -19 28 -38 32 -41 5 -4 14 -17 21 -30 8 -16 23 -26 46
-29 32 -5 35 -8 35 -40 l0 -35 -869 -1 -868 -1 -26 28 c-14 16 -34 29 -44 29
-10 0 -18 6 -18 14 0 7 -11 21 -25 30 -14 9 -25 25 -25 34 0 10 -12 29 -26 43
-30 27 -81 129 -90 180 -4 19 -13 41 -20 49 -16 19 -104 280 -104 308 0 11 -7
39 -16 63 -9 24 -20 74 -25 111 -4 37 -19 89 -33 115 l-24 48 2 -115 c0 -63 3
-117 6 -120 8 -8 31 -89 39 -140 4 -25 13 -55 19 -67 7 -12 12 -35 12 -51 0
-16 7 -35 15 -42 8 -7 15 -25 15 -39 0 -15 7 -36 15 -47 8 -10 15 -29 15 -41
0 -19 41 -113 71 -163 5 -8 12 -22 15 -30 3 -8 10 -22 15 -30 5 -8 14 -26 19
-39 43 -98 145 -180 283 -226 57 -19 78 -14 74 17 l-2 23 630 -4 c347 -2 632
-5 634 -7 16 -14 -57 -17 -452 -16 -244 0 -450 -4 -458 -8 -10 -7 -4 -14 26
-27 36 -16 79 -18 465 -18 234 0 433 3 442 7 15 6 16 12 8 34 -15 39 -2 44
127 44 126 0 143 -4 136 -29 -4 -16 4 -20 52 -26 104 -13 281 -7 338 11 130
42 170 66 260 157 26 27 52 47 57 45 5 -2 25 -25 43 -53 38 -59 110 -110 181
-129 139 -37 164 -39 416 -39 217 0 264 3 308 17 160 53 229 137 276 334 28
116 41 312 25 392 -13 70 -12 130 5 155 11 17 10 22 -7 36 -21 16 -21 16 -1
27 22 11 111 -1 128 -18 6 -6 18 -10 27 -10 26 0 78 -67 99 -127 13 -37 19
-87 21 -165 l3 -113 -31 -1 c-36 -1 -53 -10 -53 -29 0 -18 23 -25 86 -25 l54
0 0 -56 c0 -41 -6 -64 -21 -85 -19 -28 -21 -54 -6 -106 3 -12 -64 -53 -88 -53
-16 0 -29 15 -55 69 -39 82 -40 116 -6 178 15 25 24 48 22 51 -9 8 -55 -33
-56 -49 0 -9 -6 -22 -14 -28 -20 -17 -30 -143 -14 -189 16 -46 29 -56 98 -80
41 -14 63 -16 85 -10 56 17 114 49 134 74 25 32 34 106 22 172 -11 54 -53 122
-76 122 -18 0 -33 47 -37 115 -4 74 10 80 77 33 46 -32 49 -33 148 -32 115 1
174 17 318 87 173 85 458 322 509 423 44 89 64 149 64 194 0 60 -49 179 -92
226 -54 59 -142 114 -183 114 -12 0 -37 9 -55 21 -28 17 -39 19 -70 10 -20 -6
-41 -8 -45 -5 -23 14 -178 -49 -222 -90 -15 -14 -35 -26 -44 -26 -20 0 -83
-39 -83 -51 0 -5 -15 -26 -34 -46 -18 -21 -41 -55 -49 -75 -17 -41 -23 -44
-60 -27 -19 9 -31 6 -66 -13 -51 -29 -70 -62 -107 -188 -41 -144 -77 -210
-111 -210 -17 0 -76 29 -84 42 -3 5 -32 13 -65 18 -68 10 -94 18 -94 32 0 5
-16 30 -35 55 -44 58 -48 104 -9 122 42 19 103 73 139 121 19 25 50 55 70 65
126 67 161 420 53 528 -23 23 -25 22 -43 -14z m960 -299 c3 -5 24 -14 47 -21
106 -28 191 -140 204 -270 3 -30 -1 -56 -11 -75 -8 -16 -15 -38 -15 -50 0 -12
-11 -33 -24 -47 -14 -15 -27 -35 -30 -45 -4 -10 -20 -29 -37 -41 -16 -12 -34
-33 -39 -47 -5 -13 -16 -24 -23 -24 -7 0 -24 -11 -37 -26 -14 -14 -44 -34 -68
-44 -25 -11 -46 -28 -49 -40 -3 -12 -17 -22 -38 -26 -21 -4 -36 -14 -43 -29
-8 -17 -23 -26 -49 -31 -21 -3 -45 -12 -53 -19 -17 -14 -87 -45 -102 -45 -6 0
-8 7 -4 15 11 31 -40 9 -82 -35 -25 -26 -43 -29 -172 -33 -50 -2 -55 0 -58 21
-2 14 2 22 12 22 27 0 28 20 0 30 -25 10 -26 11 -9 30 9 10 34 22 56 25 21 4
41 11 45 16 7 13 -100 11 -112 -1 -6 -6 -34 -13 -62 -17 -44 -5 -53 -3 -59 13
-4 10 -2 19 4 21 6 2 20 12 31 21 11 9 40 35 66 56 41 36 46 44 46 82 0 24 -4
45 -9 48 -10 7 -26 -52 -17 -61 6 -6 -34 -34 -68 -46 -16 -7 -18 -4 -12 25 3
18 14 40 25 48 17 15 30 59 37 120 6 57 54 133 54 85 0 -8 5 -15 10 -15 13 0
13 6 -2 30 -15 24 -1 53 28 59 10 1 26 9 34 16 8 7 28 15 43 19 19 5 43 27 75
71 26 36 52 65 59 65 6 0 14 13 18 30 7 30 47 70 71 70 7 0 34 9 61 21 74 33
244 52 258 29z m-3025 -1382 c0 -17 -28 -7 -54 21 -19 20 -26 35 -22 47 6 15
12 12 41 -21 19 -21 35 -42 35 -47z"/>
<path d="M7865 2367 c-4 -10 -5 -21 -1 -24 10 -10 18 4 13 24 -4 17 -4 17 -12
0z"/>
<path d="M7660 2225 c0 -10 7 -15 18 -13 21 4 19 22 -2 26 -10 2 -16 -3 -16
-13z"/>
<path d="M7546 2119 c-11 -10 -16 -22 -13 -26 8 -7 47 25 47 39 0 13 -14 8
-34 -13z"/>
<path d="M7800 2116 c0 -27 15 -42 25 -26 8 13 -3 50 -16 50 -5 0 -9 -11 -9
-24z"/>
<path d="M7382 2078 c-7 -7 -12 -19 -12 -27 0 -11 5 -9 20 7 11 12 20 24 20
27 0 9 -16 5 -28 -7z"/>
<path d="M7780 2041 c-15 -30 -12 -33 10 -11 22 22 25 30 10 30 -5 0 -14 -9
-20 -19z"/>
<path d="M7705 2027 c-4 -10 -5 -21 -1 -24 10 -10 18 4 13 24 -4 17 -4 17 -12
0z"/>
<path d="M7260 1998 c-1 -18 -7 -44 -15 -58 -8 -14 -14 -34 -15 -44 0 -15 8
-11 35 20 34 39 44 64 25 64 -5 0 -10 11 -10 25 0 14 -4 25 -10 25 -5 0 -10
-15 -10 -32z"/>
<path d="M7353 1926 c-32 -30 -43 -56 -24 -56 11 0 71 70 71 82 0 14 -15 6
-47 -26z"/>
<path d="M7666 1945 c-3 -9 0 -15 9 -15 8 0 15 7 15 15 0 8 -4 15 -9 15 -5 0
-11 -7 -15 -15z"/>
<path d="M7748 1911 c-18 -17 -28 -31 -21 -31 15 0 68 48 61 56 -4 3 -21 -8
-40 -25z"/>
<path d="M7590 1887 c-27 -14 -40 -47 -17 -47 17 0 50 35 46 49 -3 7 -13 6
-29 -2z"/>
<path d="M7290 1861 c0 -5 -28 -27 -62 -48 -58 -35 -61 -38 -36 -41 15 -2 38
4 50 12 12 9 39 16 60 16 38 0 51 13 23 24 -8 3 -15 15 -15 26 0 11 -4 20 -10
20 -5 0 -10 -4 -10 -9z"/>
<path d="M7450 1755 c0 -8 -4 -15 -9 -15 -5 0 -11 -7 -15 -15 -3 -9 0 -15 9
-15 8 0 15 7 15 15 0 8 7 15 15 15 8 0 15 7 15 15 0 8 -7 15 -15 15 -8 0 -15
-7 -15 -15z"/>
<path d="M7286 1734 c-5 -12 1 -15 26 -12 42 4 50 28 10 28 -18 0 -32 -6 -36
-16z"/>
<path d="M7390 1690 c0 -5 7 -10 15 -10 8 0 15 5 15 10 0 6 -7 10 -15 10 -8 0
-15 -4 -15 -10z"/>
<path d="M7317 1649 c-27 -21 -28 -39 -2 -39 7 0 17 9 20 20 3 11 13 20 20 20
8 0 17 5 20 10 11 18 -29 10 -58 -11z"/>
<path d="M1504 2785 c-11 -28 5 -64 32 -71 35 -9 47 6 39 50 -6 32 -11 36 -36
36 -17 0 -32 -6 -35 -15z"/>
<path d="M2040 2785 c0 -8 5 -15 10 -15 6 0 10 7 10 15 0 8 -4 15 -10 15 -5 0
-10 -7 -10 -15z"/>
<path d="M2880 2784 c0 -17 22 -14 28 4 2 7 -3 12 -12 12 -9 0 -16 -7 -16 -16z"/>
<path d="M7915 2782 c-29 -24 -29 -82 -2 -103 41 -31 63 -31 96 -3 36 30 40
60 10 98 -24 31 -73 35 -104 8z"/>
<path d="M4265 2762 c-17 -15 -20 -29 -19 -102 2 -109 -3 -129 -32 -140 -30
-12 -31 -30 -1 -30 12 0 39 -3 60 -6 l37 -7 0 152 c0 160 -3 169 -45 133z"/>
<path d="M7742 2769 c-19 -7 -23 -15 -20 -41 3 -29 7 -33 34 -36 27 -3 33 1
38 23 6 25 -8 66 -22 64 -4 0 -17 -4 -30 -10z"/>
<path d="M1247 2755 c-9 -22 3 -46 22 -43 10 2 16 13 16 28 0 28 -29 40 -38
15z"/>
<path d="M1854 2736 c-26 -27 -30 -37 -26 -74 2 -24 11 -48 21 -55 9 -6 27
-29 39 -50 l21 -37 -29 -34 c-17 -18 -30 -45 -30 -58 0 -29 64 -98 90 -98 10
0 23 -7 30 -15 7 -8 21 -15 31 -15 11 0 27 -4 37 -9 46 -25 110 -51 125 -51
31 0 18 29 -30 65 -27 20 -64 51 -83 69 -20 18 -48 36 -63 39 -24 7 -26 11
-25 50 2 31 -5 52 -25 82 -28 41 -34 69 -18 79 9 6 91 -66 91 -79 0 -13 45
-55 59 -55 10 0 12 -8 8 -30 -4 -17 -2 -30 4 -30 5 0 13 -8 16 -17 4 -10 11
-22 15 -28 5 -5 18 -22 29 -38 11 -15 25 -25 30 -21 6 3 8 51 7 111 -4 104 -4
106 -35 133 -29 26 -35 28 -68 19 -38 -11 -55 -6 -55 16 0 8 -9 19 -20 25 -11
6 -20 19 -20 30 0 29 -59 110 -78 109 -9 -1 -31 -16 -48 -33z m244 -225 c3 -8
-1 -12 -9 -9 -7 2 -15 10 -17 17 -3 8 1 12 9 9 7 -2 15 -10 17 -17z"/>
<path d="M3957 2763 c-8 -15 -8 -301 0 -306 4 -2 25 -2 46 0 39 5 48 22 22 43
-11 9 -15 31 -14 79 1 36 -2 78 -6 93 -4 15 -2 36 5 49 11 19 10 24 -6 36 -20
14 -41 17 -47 6z"/>
<path d="M2820 2705 c0 -8 7 -15 15 -15 8 0 15 7 15 15 0 8 -7 15 -15 15 -8 0
-15 -7 -15 -15z"/>
<path d="M7080 2695 c0 -4 7 -19 15 -34 10 -20 12 -44 8 -80 -4 -36 -2 -51 6
-51 6 0 14 6 17 14 3 8 16 17 29 20 21 5 23 11 21 61 -1 37 -7 59 -16 65 -16
10 -80 14 -80 5z"/>
<path d="M7325 2658 c-47 -56 -21 -139 49 -152 101 -19 163 87 94 161 -17 18
-32 23 -69 23 -41 0 -51 -4 -74 -32z"/>
<path d="M1248 2625 c-23 -30 -23 -48 0 -68 25 -23 50 -21 73 6 25 30 24 42
-10 66 -36 26 -42 26 -63 -4z"/>
<path d="M3380 2605 c0 -8 5 -15 10 -15 6 0 10 7 10 15 0 8 -4 15 -10 15 -5 0
-10 -7 -10 -15z"/>
<path d="M1524 2466 c-8 -20 -6 -21 24 -30 27 -9 29 5 2 29 -18 16 -20 16 -26
1z"/>
<path d="M1580 2460 c0 -5 7 -10 15 -10 8 0 15 5 15 10 0 6 -7 10 -15 10 -8 0
-15 -4 -15 -10z"/>
<path d="M5180 2448 c0 -13 10 -41 23 -62 40 -70 85 -78 52 -9 -9 21 -23 49
-29 63 -16 34 -46 39 -46 8z"/>
<path d="M1453 2424 c-13 -14 -23 -30 -23 -35 0 -14 20 -11 26 5 3 8 15 16 26
19 11 3 18 11 16 18 -7 22 -22 19 -45 -7z"/>
<path d="M6698 2370 c-18 -32 -7 -50 17 -30 15 13 21 60 8 60 -5 0 -16 -13
-25 -30z"/>
<path d="M1363 2366 c-25 -26 -30 -46 -10 -46 15 0 57 44 57 59 0 18 -24 12
-47 -13z"/>
<path d="M2617 2384 c-10 -11 5 -34 22 -34 23 0 31 9 24 26 -5 14 -34 19 -46
8z"/>
<path d="M4560 2339 c-25 -4 -75 -8 -112 -8 l-66 -1 -7 -107 c-4 -60 -11 -118
-16 -130 -5 -14 -4 -25 3 -29 5 -4 57 -7 114 -8 109 -1 133 10 74 34 -16 7
-32 21 -35 31 -17 54 38 86 86 50 47 -35 59 -28 59 32 0 28 7 65 15 81 27 51
21 66 -27 65 -24 -1 -63 -5 -88 -10z m33 -76 c15 -9 6 -33 -13 -33 -40 0 -97
-38 -110 -72 -11 -28 -14 -30 -17 -13 -3 11 -9 24 -14 30 -15 15 -10 72 8 90
13 14 27 15 77 10 34 -4 64 -9 69 -12z"/>
<path d="M2285 2306 c-8 -13 -13 -30 -10 -38 4 -9 -1 -18 -9 -21 -16 -7 -23
-57 -7 -57 4 0 13 -15 18 -32 l10 -33 12 28 c6 16 15 25 21 22 12 -7 14 -152
2 -159 -11 -6 -82 25 -82 36 0 4 -11 8 -24 8 -13 0 -34 9 -47 19 -20 16 -22
22 -11 33 10 10 16 10 30 0 9 -7 25 -15 35 -18 9 -4 17 -13 17 -20 0 -16 16
-19 25 -4 3 6 0 17 -9 25 -8 8 -17 23 -20 33 -7 21 -86 52 -133 52 -66 0 -96
-86 -45 -126 26 -21 137 -54 179 -54 11 0 32 -9 46 -21 20 -15 35 -18 61 -14
19 4 36 12 38 18 2 7 5 79 7 160 3 130 1 150 -14 167 -25 28 -71 26 -90 -4z"/>
<path d="M4160 2318 c-58 -5 -108 -13 -111 -16 -4 -4 -9 -59 -12 -122 l-6
-115 135 -1 134 0 0 97 c0 74 4 100 15 109 8 7 15 23 15 36 0 27 3 27 -170 12z
m118 -91 c2 -16 -2 -35 -10 -44 -7 -9 -17 -29 -23 -45 -9 -28 -14 -30 -65 -34
-87 -6 -90 -3 -90 76 0 45 4 70 13 74 6 2 48 4 92 3 80 -2 80 -2 83 -30z"/>
<path d="M3785 2291 l-70 -6 -3 -111 -3 -110 128 2 128 3 6 93 c4 51 8 102 10
113 4 18 -2 20 -61 21 -36 0 -96 -2 -135 -5z m150 -67 c15 -16 15 -38 -1 -95
-6 -21 -34 -29 -101 -29 -49 0 -53 2 -59 27 -4 14 -7 43 -8 62 l-1 36 55 6
c93 10 98 9 115 -7z"/>
<path d="M3505 2273 c-60 -2 -114 -8 -118 -12 -5 -5 -4 -41 2 -83 21 -129 16
-121 64 -113 56 9 65 20 27 33 -30 11 -31 14 -28 59 l3 48 70 6 c55 5 74 3 88
-9 19 -17 18 -18 35 22 13 30 2 58 -22 54 -6 -1 -60 -4 -121 -5z"/>
<path d="M1290 2249 c0 -24 23 -21 28 4 2 10 -3 17 -12 17 -10 0 -16 -9 -16
-21z"/>
<path d="M3258 2246 c-25 -18 -22 -42 5 -50 42 -11 65 -7 72 14 13 42 -39 66
-77 36z"/>
<path d="M3022 2231 c-11 -7 -11 -16 -1 -52 7 -24 16 -48 21 -53 4 -6 8 -23 8
-39 l0 -29 103 7 c56 4 104 9 106 11 2 2 1 11 -3 20 -4 11 -12 14 -24 8 -9 -4
-32 -8 -51 -8 -34 -1 -34 0 -46 56 -6 31 -17 63 -24 72 -14 17 -67 21 -89 7z"/>
<path d="M1262 2148 c-6 -14 -11 -58 -10 -97 1 -82 12 -90 52 -38 24 30 25 32
6 35 -16 3 -20 12 -21 45 0 23 -4 51 -9 62 -7 19 -8 18 -18 -7z"/>
<path d="M3317 2133 c-14 -13 -7 -63 8 -63 9 0 15 9 15 23 0 26 -14 50 -23 40z"/>
<path d="M3607 2114 c-10 -13 -28 -24 -40 -25 -21 -1 -20 -1 3 -9 14 -4 38 -8
54 -9 26 -1 28 1 21 27 -10 40 -18 43 -38 16z"/>
<path d="M2493 2099 c-40 -11 -42 -22 -8 -37 20 -9 24 -17 20 -35 -8 -31 17
-54 34 -33 10 11 10 20 1 37 -7 12 -9 34 -6 50 6 32 6 32 -41 18z"/>
<path d="M4915 2080 c-7 -12 20 -25 33 -16 6 3 12 -1 16 -9 7 -18 60 -21 54
-2 -3 6 -15 14 -29 15 -13 2 -28 8 -33 13 -13 12 -33 11 -41 -1z"/>
<path d="M5495 2069 c-11 -17 -2 -18 19 -3 17 12 17 14 4 14 -9 0 -20 -5 -23
-11z"/>
<path d="M3065 1990 c-3 -5 -3 -16 2 -22 4 -7 17 -53 28 -103 l20 -90 39 -3
c21 -2 43 1 48 6 6 6 1 34 -12 73 -14 40 -20 78 -17 101 4 26 1 38 -10 42 -24
10 -91 7 -98 -4z"/>
<path d="M3250 1990 c-13 -8 -13 -11 1 -25 9 -9 34 -22 55 -30 47 -16 55 -47
28 -107 -15 -34 -16 -41 -3 -49 28 -17 34 -2 35 87 1 49 3 98 5 109 4 18 -2
20 -51 23 -30 1 -62 -2 -70 -8z"/>
<path d="M3420 1968 c1 -18 6 -71 13 -117 l13 -84 112 -1 c62 -1 113 2 115 6
1 4 1 57 -1 118 l-3 110 -125 0 -124 0 0 -32z m166 -38 c31 0 33 -2 40 -45 3
-25 4 -48 1 -51 -3 -3 -23 -6 -44 -7 -21 0 -44 -5 -50 -10 -21 -15 -40 9 -48
58 -8 57 -1 69 37 61 17 -3 45 -6 64 -6z"/>
<path d="M3725 1888 c4 -62 9 -115 11 -117 3 -3 56 -6 118 -7 l114 -2 4 111
c2 62 2 115 0 120 -2 4 -60 7 -128 7 l-126 0 7 -112z m193 4 c2 -19 -4 -44
-12 -58 -14 -20 -23 -23 -59 -21 -48 3 -67 27 -67 85 l0 33 68 -3 67 -3 3 -33z"/>
<path d="M4028 1993 c-2 -5 -5 -62 -7 -128 l-2 -120 125 -2 126 -2 0 81 c0 53
5 91 16 114 29 60 20 64 -125 64 -71 0 -131 -3 -133 -7z m196 -79 c39 -38 8
-97 -51 -100 -21 -1 -49 -4 -63 -6 -23 -3 -25 0 -28 46 -2 27 -1 55 2 62 8 21
120 19 140 -2z"/>
<path d="M4353 1986 c-3 -4 -9 -54 -13 -110 -4 -55 -11 -109 -15 -118 -4 -10
-3 -18 1 -19 43 -3 258 -3 263 1 5 3 11 40 14 82 4 42 14 92 23 111 30 62 22
66 -131 64 -75 -1 -139 -6 -142 -11z m195 -72 c18 -5 15 -42 -8 -74 -15 -20
-31 -29 -65 -34 -68 -9 -87 4 -79 57 10 62 18 68 83 61 31 -3 62 -7 69 -10z"/>
<path d="M2042 1955 c-18 -13 -51 -42 -73 -64 -21 -23 -43 -41 -49 -41 -5 0
-10 -4 -10 -10 0 -5 6 -10 14 -10 8 0 18 5 21 10 3 6 15 10 26 10 23 0 129 96
129 116 0 20 -20 16 -58 -11z"/>
<path d="M1157 1922 c-10 -10 -17 -25 -17 -33 1 -11 4 -10 14 4 7 9 18 17 25
17 6 0 11 7 11 15 0 20 -13 19 -33 -3z"/>
<path d="M2466 1917 c-14 -14 -26 -31 -26 -37 0 -5 -7 -10 -15 -10 -8 0 -22
-11 -31 -25 -9 -13 -24 -27 -33 -30 -9 -3 -25 -24 -35 -46 -10 -23 -41 -66
-67 -95 -51 -56 -59 -78 -34 -88 21 -8 45 3 45 22 0 21 54 92 120 159 30 31
62 66 70 78 8 12 24 35 34 49 28 40 6 57 -28 23z"/>
<path d="M2204 1857 c-12 -12 -31 -29 -42 -37 -12 -8 -22 -24 -24 -35 -2 -15
3 -20 21 -20 18 0 32 11 52 45 41 67 37 93 -7 47z"/>
<path d="M3236 1814 c-8 -21 1 -34 25 -34 21 0 25 20 7 38 -16 16 -25 15 -32
-4z"/>
<path d="M1080 1790 c0 -11 7 -20 15 -20 8 0 15 9 15 20 0 11 -7 20 -15 20 -8
0 -15 -9 -15 -20z"/>
<path d="M1870 1788 l-22 -18 31 -11 c17 -6 31 -14 31 -18 0 -4 17 -26 38 -49
57 -64 78 -95 85 -122 6 -22 67 -107 99 -137 39 -36 111 -83 126 -83 10 0 23
-5 29 -11 6 -6 46 -12 89 -14 116 -4 148 -13 183 -49 35 -36 101 -142 101
-162 0 -17 -80 -8 -120 13 -14 7 -35 13 -47 13 -12 0 -26 6 -30 13 -8 13 -159
77 -181 77 -7 0 -12 -7 -12 -15 0 -8 9 -15 19 -15 11 0 22 -4 25 -9 4 -5 27
-19 54 -31 26 -11 60 -28 75 -35 16 -8 43 -15 62 -15 18 0 38 -7 45 -15 7 -8
28 -15 47 -15 21 0 36 -6 39 -15 4 -9 19 -15 39 -15 19 0 37 -5 41 -11 3 -6
22 -17 41 -25 18 -8 31 -19 28 -24 -8 -13 -75 -13 -75 0 0 6 -17 10 -38 10
-21 0 -47 7 -58 15 -10 8 -34 15 -53 15 -19 0 -42 6 -50 14 -9 8 -44 16 -79
19 -34 2 -68 9 -74 15 -7 7 -41 12 -79 12 -47 0 -70 4 -79 15 -8 9 -30 15 -60
15 -30 0 -52 6 -60 15 -13 16 -110 22 -110 7 0 -10 99 -40 160 -48 25 -3 64
-12 88 -20 23 -8 58 -14 76 -14 19 0 50 -7 69 -15 20 -8 49 -15 65 -15 16 0
42 -7 59 -15 16 -8 45 -16 63 -18 42 -5 49 -21 17 -42 -18 -12 -40 -14 -89
-11 -52 4 -73 1 -104 -14 -21 -11 -57 -20 -81 -20 -23 0 -45 -5 -48 -10 -6
-10 -60 -6 -129 12 -22 5 -58 28 -85 52 -25 24 -54 46 -63 49 -10 4 -18 15
-18 25 0 26 -22 43 -40 32 -9 -5 -21 -3 -34 6 -11 8 -30 14 -43 14 -12 0 -26
6 -30 13 -4 7 -41 21 -81 31 -62 14 -80 23 -114 59 -39 40 -41 45 -42 109 -1
71 -5 78 -30 53 -8 -8 -19 -15 -25 -15 -36 0 -42 -111 -8 -160 29 -43 107 -97
160 -110 84 -21 147 -42 153 -51 3 -5 16 -9 28 -9 15 0 41 -18 72 -51 98 -103
120 -122 153 -136 39 -16 147 -19 194 -4 18 5 63 12 101 15 37 2 73 9 79 15 6
6 44 11 83 11 40 0 85 5 101 11 15 7 50 13 77 15 126 9 157 89 74 195 -15 20
-28 42 -28 49 0 6 -12 27 -27 46 -15 20 -36 55 -47 78 -30 62 -86 127 -121
141 -20 8 -68 11 -143 8 -100 -4 -117 -2 -157 17 -48 23 -107 92 -169 196 -40
68 -110 144 -132 144 -8 0 -25 10 -38 23 -23 23 -24 23 -46 5z"/>
<path d="M6820 1784 c0 -3 16 -25 35 -48 19 -24 35 -48 35 -53 0 -6 7 -13 15
-17 9 -3 15 -18 15 -35 0 -16 4 -32 9 -35 16 -10 19 32 5 60 -8 14 -14 32 -14
39 0 18 -70 95 -86 95 -8 0 -14 -3 -14 -6z"/>
<path d="M2532 1735 c-12 -14 -26 -25 -31 -25 -5 0 -24 -22 -42 -50 -18 -27
-40 -52 -51 -55 -10 -4 -18 -12 -18 -19 0 -7 -11 -25 -25 -40 -29 -31 -31 -44
-9 -53 9 -3 23 3 35 16 11 11 24 21 30 21 5 0 15 12 21 28 6 15 40 56 75 90
45 45 63 70 61 85 -4 30 -21 31 -46 2z"/>
<path d="M2100 1741 c0 -12 26 -32 33 -25 9 10 -4 34 -19 34 -8 0 -14 -4 -14
-9z"/>
<path d="M1110 1720 c0 -6 8 -23 19 -38 10 -15 34 -52 54 -82 19 -30 43 -62
53 -71 30 -25 105 -65 159 -84 28 -9 59 -21 70 -25 11 -5 35 -11 53 -14 58
-10 32 35 -40 69 -18 8 -40 19 -48 24 -8 5 -28 13 -44 16 -16 3 -42 19 -58 36
-17 16 -43 36 -58 44 -15 8 -47 38 -71 67 -24 29 -48 56 -54 60 -15 11 -35 10
-35 -2z"/>
<path d="M3120 1710 c0 -8 4 -27 10 -44 5 -17 12 -44 15 -59 5 -26 9 -28 48
-25 35 3 42 6 40 23 -2 11 -5 37 -7 58 -4 47 -5 48 -61 54 -33 4 -45 2 -45 -7z"/>
<path d="M3280 1696 c0 -8 4 -26 10 -40 8 -22 14 -25 38 -20 17 4 32 1 36 -5
5 -7 -4 -14 -23 -17 -60 -12 -47 -50 19 -56 44 -3 45 -3 43 27 -1 17 -3 50 -5
75 l-3 45 -57 3 c-46 2 -58 0 -58 -12z"/>
<path d="M3454 1698 c-9 -13 -6 -129 3 -138 2 -2 37 -8 76 -11 40 -4 89 -11
110 -14 l37 -8 0 87 0 86 -94 0 c-52 0 -101 3 -109 6 -8 3 -19 -1 -23 -8z"/>
<path d="M3736 1691 c-2 -3 0 -42 3 -86 l6 -80 80 -6 c44 -4 89 -8 100 -10 18
-4 21 3 27 85 4 49 7 90 5 91 -7 6 -218 12 -221 6z m171 -97 c11 -29 -12 -37
-58 -22 -62 21 -62 38 0 38 38 0 53 -4 58 -16z"/>
<path d="M4860 1690 c0 -15 21 -23 32 -12 6 6 2 11 -11 15 -12 3 -21 1 -21 -3z"/>
<path d="M4016 1672 c-3 -9 -5 -52 -4 -94 0 -91 -8 -85 133 -90 l100 -3 0 55
c0 30 7 72 15 92 7 21 12 39 9 41 -2 2 -59 7 -126 10 -109 5 -122 4 -127 -11z
m198 -85 c16 -25 -7 -37 -71 -37 -78 0 -103 16 -71 48 20 20 128 11 142 -11z"/>
<path d="M4970 1680 c0 -5 7 -10 15 -10 8 0 15 5 15 10 0 6 -7 10 -15 10 -8 0
-15 -4 -15 -10z"/>
<path d="M4323 1667 c-3 -5 -7 -50 -9 -101 l-4 -93 113 -10 c77 -6 114 -6 119
1 4 6 8 31 8 56 0 24 7 64 17 88 9 25 12 46 7 52 -12 11 -244 18 -251 7z m159
-67 c32 0 50 -27 27 -41 -8 -5 -42 -9 -77 -9 -49 0 -64 4 -69 16 -9 24 26 47
61 40 16 -3 42 -6 58 -6z"/>
<path d="M1550 1603 c8 -3 25 -14 37 -25 12 -12 31 -18 45 -16 20 4 17 7 -22
26 -25 12 -52 21 -60 21 -13 -1 -13 -1 0 -6z"/>
<path d="M1720 1579 c0 -9 110 -82 115 -77 10 10 -70 82 -91 83 -13 0 -24 -2
-24 -6z"/>
<path d="M1890 1519 c0 -6 14 -28 30 -49 17 -21 30 -43 30 -49 0 -6 5 -11 10
-11 21 0 9 39 -20 68 -16 17 -30 35 -30 41 0 6 -4 11 -10 11 -5 0 -10 -5 -10
-11z"/>
<path d="M2587 1523 c-4 -3 -7 -13 -7 -21 0 -12 3 -12 15 -2 8 7 15 16 15 21
0 11 -14 12 -23 2z"/>
<path d="M1830 1420 c13 -24 27 -33 40 -25 14 9 -4 31 -30 38 -17 4 -18 2 -10
-13z"/>
<path d="M1980 1393 c0 -22 55 -73 78 -73 21 0 13 17 -15 36 -15 9 -35 27 -45
38 l-17 21 -1 -22z"/>
<path d="M1907 1360 c11 -43 83 -104 83 -70 0 6 -4 10 -10 10 -15 0 -48 36
-52 56 -1 9 -8 19 -15 21 -7 3 -9 -3 -6 -17z"/>
<path d="M7522 1346 c-36 -19 -72 -77 -72 -114 0 -50 54 -102 107 -102 63 1
103 46 103 117 0 41 -4 49 -36 76 -32 26 -77 37 -102 23z"/>
<path d="M2090 1300 c19 -13 30 -13 30 0 0 6 -10 10 -22 10 -19 0 -20 -2 -8
-10z"/>
<path d="M1795 1270 c3 -5 26 -10 51 -10 28 0 43 4 39 10 -3 6 -26 10 -51 10
-28 0 -43 -4 -39 -10z"/>
<path d="M2145 1270 c3 -5 17 -10 31 -10 13 0 24 5 24 10 0 6 -14 10 -31 10
-17 0 -28 -4 -24 -10z"/>
<path d="M1900 1244 c0 -10 13 -14 44 -14 26 0 48 -6 56 -15 8 -9 30 -15 60
-15 28 0 52 -6 59 -14 15 -18 100 -31 114 -17 7 7 1 12 -19 17 -16 4 -33 10
-39 14 -5 4 -22 10 -37 14 -16 3 -28 11 -28 16 0 6 -13 10 -28 10 -16 0 -32 3
-36 7 -4 4 -39 8 -77 9 -53 1 -69 -2 -69 -12z"/>
<path d="M2210 1245 c0 -10 10 -15 28 -15 26 1 26 1 8 15 -25 19 -36 19 -36 0z"/>
<path d="M1760 1201 c0 -28 101 -56 159 -45 47 10 27 24 -33 24 -35 0 -58 5
-66 15 -13 16 -60 21 -60 6z"/>
<path d="M3257 1103 c-15 -2 -25 -9 -22 -14 8 -12 205 -12 205 1 0 6 -26 10
-57 10 -32 0 -67 2 -78 4 -11 2 -32 1 -48 -1z"/>
<path d="M3100 1090 c0 -5 16 -10 35 -10 19 0 35 5 35 10 0 6 -16 10 -35 10
-19 0 -35 -4 -35 -10z"/>
<path d="M3864 1088 c-3 -4 128 -8 290 -8 181 0 296 4 296 10 0 11 -579 10
-586 -2z"/>
<path d="M4520 1090 c0 -6 32 -10 78 -9 54 1 69 3 52 9 -36 12 -130 12 -130 0z"/>
<path d="M7412 1060 c-15 -24 -16 -57 -1 -65 17 -11 58 4 70 26 8 16 7 25 -7
40 -22 24 -46 24 -62 -1z"/>
<path d="M1635 889 c-11 -5 -27 -27 -36 -48 -16 -37 -16 -42 1 -78 19 -43 35
-53 80 -53 29 0 50 15 77 56 18 29 11 84 -15 107 -22 20 -82 29 -107 16z"/>
<path d="M3457 884 c-3 -4 -51 -7 -106 -8 l-100 -1 -56 -55 c-73 -72 -90 -120
-71 -207 19 -89 63 -141 155 -186 42 -21 53 -21 116 1 72 26 106 46 137 81 90
101 100 231 23 302 -14 13 -33 36 -41 52 -13 25 -42 36 -57 21z m-59 -62 c29
-9 92 -88 92 -117 0 -12 7 -28 15 -35 20 -17 19 -64 -2 -98 -22 -35 -49 -62
-63 -62 -15 0 -12 20 5 26 22 9 18 41 -5 54 -15 8 -20 21 -20 50 0 41 -20 70
-48 70 -15 -1 -15 -2 1 -11 43 -25 7 -119 -46 -119 -34 0 -47 19 -47 66 0 33
4 44 19 49 31 10 34 34 5 45 -39 15 -57 12 -77 -16 -20 -27 -16 -44 6 -26 22
18 28 2 11 -30 -8 -16 -12 -37 -9 -48 11 -35 46 -70 70 -70 13 0 32 -9 42 -19
10 -10 27 -20 37 -22 11 -2 21 -10 24 -16 6 -20 -127 -18 -134 2 -4 8 -10 15
-15 15 -13 0 -41 31 -62 68 -26 45 -27 158 -3 195 10 15 23 27 28 27 5 0 16 7
24 15 16 16 106 19 152 7z"/>
<path d="M4545 860 c5 -16 1 -23 -22 -30 -17 -6 -42 -30 -61 -60 -28 -42 -32
-57 -32 -114 0 -36 5 -68 10 -71 6 -3 10 -15 10 -26 0 -52 138 -149 213 -149
67 0 141 50 191 128 34 54 36 135 4 201 -25 53 -56 91 -75 91 -7 0 -18 11 -23
25 -9 24 -12 25 -115 25 -102 0 -106 -1 -100 -20z m195 -77 c22 -24 30 -44 30
-71 0 -21 7 -48 16 -60 15 -22 9 -29 -11 -14 -6 4 -21 21 -33 38 -12 17 -31
34 -42 37 -24 6 -26 -5 -5 -23 35 -29 3 -110 -44 -110 -41 0 -51 11 -51 55 0
36 5 47 30 66 16 13 30 26 30 29 0 3 -20 12 -45 19 -43 13 -45 12 -70 -14 -31
-34 -33 -65 -5 -65 22 0 26 -10 10 -26 -7 -7 0 -21 21 -42 26 -27 30 -35 22
-59 -13 -39 -29 -39 -63 -2 -22 25 -30 43 -30 71 0 21 -5 46 -11 57 -20 30 -2
85 38 121 64 59 158 56 213 -7z m-12 -291 c3 -10 -12 -12 -64 -10 -44 2 -69 7
-72 16 -3 10 12 12 64 10 44 -2 69 -7 72 -16z"/>
<path d="M5680 807 c-14 -7 -25 -18 -25 -24 0 -7 29 -27 65 -46 84 -45 126
-106 123 -181 -1 -39 2 -49 17 -53 18 -5 35 -31 26 -40 -20 -20 -201 -29 -295
-15 -40 7 -44 10 -61 55 -14 36 -17 60 -11 101 8 59 26 91 78 144 19 19 32 36
29 39 -7 7 -76 -45 -95 -71 -8 -10 -22 -26 -33 -35 -15 -13 -18 -30 -18 -100
0 -174 30 -201 224 -201 142 0 191 15 251 77 30 31 35 43 35 84 0 26 -4 50 -9
54 -5 3 -13 19 -16 37 -10 43 -71 126 -109 145 -30 15 -120 43 -141 43 -5 0
-21 -6 -35 -13z"/>
<path d="M6323 750 c-56 -12 -143 -77 -150 -112 -3 -15 -11 -29 -19 -32 -21
-8 -20 -184 1 -192 8 -4 15 -12 15 -19 0 -8 17 -27 37 -44 l38 -31 138 0 c117
0 144 3 176 20 81 41 112 150 72 248 -52 128 -171 191 -308 162z m127 -82 c56
-28 77 -67 60 -107 -18 -45 -9 -104 17 -116 27 -12 38 -34 23 -49 -7 -7 -66
-11 -160 -11 -135 0 -151 2 -177 21 -34 25 -49 82 -39 149 17 110 163 170 276
113z"/>
</g>
</svg>
